<?xml version="1.0" standalone="no"?>
<!DOCTYPE svg PUBLIC "-//W3C//DTD SVG 20010904//EN"
 "http://www.w3.org/TR/2001/REC-SVG-20010904/DTD/svg10.dtd">
<svg version="1.0" xmlns="http://www.w3.org/2000/svg"
 width="928.000000pt" height="928.000000pt" viewBox="0 0 928.000000 928.000000"
 preserveAspectRatio="xMidYMid meet">
<metadata>
Created by potrace 1.11, written by Peter Selinger 2001-2013
</metadata>
<g transform="translate(0.000000,928.000000) scale(0.100000,-0.100000)"
fill="#000000" stroke="none">
<path d="M4458 9235 c-1 -1 -48 -6 -103 -9 -55 -4 -118 -9 -140 -11 -22 -3
-62 -7 -90 -10 -105 -12 -122 -14 -205 -30 -47 -9 -98 -17 -115 -20 -16 -2
-39 -6 -50 -9 -11 -2 -74 -16 -140 -31 -136 -30 -127 -28 -220 -55 -38 -12
-74 -23 -80 -24 -5 -1 -30 -9 -55 -16 -25 -7 -49 -14 -55 -16 -5 -1 -48 -16
-95 -33 -101 -38 -109 -40 -115 -41 -40 -6 -436 -187 -447 -204 -4 -6 -8 -7
-8 -3 0 7 -45 -16 -192 -97 -87 -49 -203 -121 -206 -128 -2 -4 -8 -8 -13 -8
-18 0 -335 -225 -421 -299 -12 -11 -34 -29 -48 -41 -105 -88 -154 -133 -290
-270 -85 -85 -171 -174 -190 -196 -19 -23 -55 -65 -80 -95 -25 -29 -53 -61
-62 -71 -10 -10 -18 -22 -18 -27 0 -5 -3 -11 -8 -13 -4 -1 -23 -23 -42 -48
-19 -25 -43 -54 -52 -64 -10 -11 -18 -23 -18 -27 0 -4 -6 -14 -13 -21 -7 -7
-30 -38 -50 -68 -20 -30 -44 -62 -52 -71 -8 -9 -15 -18 -15 -22 0 -3 -19 -34
-42 -69 -46 -69 -161 -266 -196 -338 -13 -25 -27 -52 -32 -60 -14 -22 -110
-227 -110 -234 0 -3 -11 -29 -24 -58 -13 -29 -39 -91 -56 -138 -18 -47 -42
-112 -55 -145 -12 -33 -26 -73 -30 -90 -12 -45 -12 -45 -15 -50 -1 -3 -3 -8
-4 -12 -1 -5 -5 -14 -9 -20 -5 -7 -6 -13 -3 -13 3 0 -4 -26 -15 -57 -11 -32
-22 -74 -25 -93 -3 -19 -9 -39 -14 -45 -4 -5 -8 -17 -8 -25 0 -8 -3 -26 -6
-40 -3 -14 -8 -35 -10 -48 -3 -13 -7 -31 -10 -40 -3 -9 -7 -28 -10 -42 -3 -14
-11 -61 -20 -105 -15 -79 -25 -142 -32 -200 -2 -16 -5 -46 -8 -65 -25 -184
-31 -301 -30 -575 1 -225 5 -342 18 -430 2 -16 7 -64 11 -105 4 -41 9 -84 12
-95 3 -11 5 -30 4 -42 0 -12 4 -25 9 -28 6 -4 8 -10 5 -15 -3 -5 6 -66 21
-137 27 -135 27 -133 37 -173 4 -14 9 -38 12 -55 7 -37 13 -60 15 -60 1 0 3
-7 5 -15 29 -111 118 -386 145 -447 5 -13 14 -33 19 -45 44 -108 86 -206 94
-223 6 -11 12 -22 12 -25 2 -7 89 -182 123 -245 15 -27 30 -51 34 -53 5 -2 8
-8 8 -14 0 -12 82 -152 92 -156 5 -2 8 -8 8 -13 0 -20 296 -441 329 -469 4 -3
26 -30 51 -60 102 -127 298 -331 441 -460 46 -41 93 -85 105 -96 13 -12 37
-32 56 -45 18 -13 40 -30 48 -39 23 -24 258 -197 319 -235 9 -5 18 -13 21 -16
36 -41 610 -356 624 -342 3 3 6 1 6 -5 0 -6 10 -14 23 -18 12 -4 56 -22 97
-42 41 -19 81 -35 88 -35 6 0 12 -5 12 -10 0 -5 6 -7 14 -4 8 3 16 3 18 -1 3
-6 118 -51 143 -55 6 -1 12 -5 15 -9 3 -4 17 -9 30 -12 58 -12 70 -15 88 -25
10 -5 29 -12 43 -14 13 -2 31 -7 39 -10 22 -8 84 -27 106 -32 10 -2 80 -18
154 -35 74 -17 144 -33 155 -34 11 -2 36 -6 55 -10 19 -4 49 -9 65 -11 17 -2
30 -4 30 -5 0 -1 14 -3 30 -5 17 -1 30 -3 30 -5 0 -1 14 -4 30 -6 96 -10 120
-13 120 -14 0 -15 878 -22 1010 -7 39 4 81 9 95 12 14 2 48 7 75 10 97 11 234
34 255 42 8 4 18 5 23 5 4 -1 26 3 50 8 23 6 53 13 67 16 20 4 113 26 210 49
8 2 53 16 100 30 47 15 90 28 95 29 6 2 17 5 25 8 8 3 76 27 150 53 74 27 141
52 148 58 6 5 12 7 12 3 0 -3 27 7 60 24 33 17 60 28 60 25 0 -4 292 142 365
182 84 47 266 159 342 210 51 35 97 63 102 63 5 0 11 4 13 8 1 4 35 31 73 59
39 29 75 56 80 60 27 21 171 139 181 148 6 5 42 37 79 70 80 71 269 259 340
340 28 31 56 63 63 71 14 14 100 119 156 189 17 21 48 62 70 94 22 31 42 58
45 61 15 13 111 160 111 169 0 6 5 11 10 11 6 0 10 4 10 10 0 5 20 41 45 79
25 38 45 74 45 80 0 6 4 11 9 11 5 0 11 8 14 17 3 10 24 52 47 93 58 104 74
134 75 140 1 3 22 48 47 100 57 118 119 265 148 350 12 36 28 79 36 95 13 29
73 220 100 319 7 27 11 53 8 57 -2 4 0 10 5 13 5 3 12 23 17 43 4 21 8 40 9
43 0 3 5 23 10 45 10 47 12 54 15 58 1 1 3 11 4 22 4 26 14 83 21 115 3 14 8
41 11 60 17 112 24 161 30 210 3 30 7 66 10 80 13 80 19 250 19 513 0 254 -2
299 -15 308 -17 11 -81 6 -121 -9 -60 -23 -197 -39 -302 -36 -84 3 -129 11
-253 43 -78 20 -244 113 -333 186 -37 32 -111 108 -111 116 0 4 -6 14 -13 21
-12 12 -52 71 -84 123 -27 44 -77 161 -88 205 -26 103 -38 183 -40 270 -2 58
-4 110 -4 117 -2 21 -58 24 -147 7 -250 -47 -534 -9 -756 102 -169 85 -347
232 -438 364 -13 19 -27 37 -31 40 -4 3 -16 21 -27 41 -43 77 -47 84 -53 89
-3 3 -22 44 -43 93 -46 108 -81 230 -91 317 -2 14 -4 25 -5 25 -10 0 -14 295
-5 333 3 12 7 31 9 42 6 27 -26 47 -89 55 -131 17 -222 40 -301 77 -34 15 -64
28 -67 28 -21 0 -174 116 -237 179 -82 82 -133 154 -186 261 -38 76 -83 215
-88 271 -1 19 -5 40 -8 45 -10 16 -1 267 12 324 14 64 44 156 73 220 11 25 21
47 22 50 0 3 12 23 26 45 53 83 55 96 14 108 -22 7 -83 17 -130 23 -16 1 -45
5 -63 8 -19 3 -71 8 -115 12 -45 3 -98 8 -117 11 -41 5 -607 13 -612 8z
m-4281 -4777 c-2 -18 -4 -6 -4 27 0 33 2 48 4 33 2 -15 2 -42 0 -60z m7 -64
c3 -8 2 -12 -4 -9 -6 3 -10 10 -10 16 0 14 7 11 14 -7z m6 -40 c0 -8 -5 -12
-10 -9 -6 4 -8 11 -5 16 9 14 15 11 15 -7z m-3 -46 c-3 -8 -6 -5 -6 6 -1 11 2
17 5 13 3 -3 4 -12 1 -19z m10 -110 c-3 -7 -5 -2 -5 12 0 14 2 19 5 13 2 -7 2
-19 0 -25z m13 -83 c0 -8 -2 -15 -4 -15 -2 0 -6 7 -10 15 -3 8 -1 15 4 15 6 0
10 -7 10 -15z m7 -40 c0 -8 -4 -12 -9 -9 -5 3 -6 10 -3 15 9 13 12 11 12 -6z
m8 -55 c3 -5 1 -10 -4 -10 -6 0 -11 5 -11 10 0 6 2 10 4 10 3 0 8 -4 11 -10z
m8 -70 c3 -11 1 -18 -4 -14 -5 3 -9 12 -9 20 0 20 7 17 13 -6z m12 -49 c3 -5
1 -12 -5 -16 -5 -3 -10 1 -10 9 0 18 6 21 15 7z m2 -73 c-3 -8 -6 -5 -6 6 -1
11 2 17 5 13 3 -3 4 -12 1 -19z m18 -48 c3 -5 1 -10 -4 -10 -6 0 -11 5 -11 10
0 6 2 10 4 10 3 0 8 -4 11 -10z m2 -42 c-3 -8 -6 -5 -6 6 -1 11 2 17 5 13 3
-3 4 -12 1 -19z m28 -98 c2 -12 1 -20 -2 -16 -4 4 -8 16 -10 28 -4 28 6 18 12
-12z m10 -40 c3 -5 1 -10 -4 -10 -6 0 -11 5 -11 10 0 6 2 10 4 10 3 0 8 -4 11
-10z m10 -40 c3 -5 1 -10 -4 -10 -6 0 -11 5 -11 10 0 6 2 10 4 10 3 0 8 -4 11
-10z m12 -82 c-3 -8 -6 -5 -6 6 -1 11 2 17 5 13 3 -3 4 -12 1 -19z m21 -43
c-3 -3 -9 2 -12 12 -6 14 -5 15 5 6 7 -7 10 -15 7 -18z m27 -105 c-3 -5 -1
-10 6 -10 7 0 10 -3 6 -6 -9 -9 -28 6 -22 17 4 5 8 9 11 9 3 0 2 -4 -1 -10z
m70 -190 c3 -5 1 -10 -4 -10 -6 0 -11 5 -11 10 0 6 2 10 4 10 3 0 8 -4 11 -10z
m19 -56 c3 -8 2 -12 -4 -9 -6 3 -10 10 -10 16 0 14 7 11 14 -7z m46 -129 c0
-5 -5 -3 -10 5 -5 8 -10 20 -10 25 0 6 5 3 10 -5 5 -8 10 -19 10 -25z m58
-140 c-3 -3 -9 2 -12 12 -6 14 -5 15 5 6 7 -7 10 -15 7 -18z m170 -340 c-3 -3
-9 2 -12 12 -6 14 -5 15 5 6 7 -7 10 -15 7 -18z m990 -1240 c-3 -3 -9 2 -12
12 -6 14 -5 15 5 6 7 -7 10 -15 7 -18z m1227 -755 c3 -6 -1 -7 -9 -4 -18 7
-21 14 -7 14 6 0 13 -4 16 -10z m615 -196 c0 -8 -19 -13 -24 -6 -3 5 1 9 9 9
8 0 15 -2 15 -3z"/>
<path d="M7100 8150 c-25 -9 -54 -22 -64 -30 -70 -60 -77 -84 -30 -112 23 -13
43 -38 60 -74 14 -30 35 -60 47 -66 23 -13 125 -19 142 -9 6 3 21 6 35 6 38 0
87 40 96 78 12 53 5 109 -17 127 -10 10 -19 22 -19 27 0 9 -76 56 -95 59 -5 0
-12 2 -15 4 -17 9 -101 3 -140 -10z m-87 -100 c3 -11 1 -23 -4 -26 -5 -3 -9 6
-9 20 0 31 6 34 13 6z m110 -152 c9 -6 9 -8 0 -8 -16 0 -43 40 -43 65 1 14 5
10 16 -15 8 -19 20 -38 27 -42z"/>
<path d="M8473 7900 c-40 -9 -73 -15 -73 -12 0 2 -6 0 -12 -6 -7 -6 -16 -10
-21 -10 -16 0 -114 -17 -119 -22 -2 -1 -12 -3 -23 -5 -11 -1 -31 -5 -45 -8
-101 -23 -138 -30 -157 -31 -13 0 -23 -4 -23 -7 0 -3 -6 -6 -12 -6 -51 -1
-100 -20 -160 -61 -38 -26 -86 -57 -106 -69 -64 -39 -250 -126 -269 -126 -7 0
-13 -4 -13 -9 0 -4 -3 -7 -7 -6 -10 3 -73 -22 -90 -35 -10 -7 -8 -14 5 -33 9
-13 23 -24 30 -24 6 0 12 -3 12 -7 0 -10 77 -59 144 -93 52 -26 61 -41 71
-120 3 -25 -2 -46 -20 -75 -86 -142 -96 -180 -59 -242 14 -24 31 -43 38 -43 7
0 22 -9 33 -19 12 -11 24 -17 27 -14 3 4 6 1 6 -5 0 -7 3 -11 8 -10 12 4 134
-59 180 -92 25 -18 50 -47 59 -68 19 -46 18 -46 51 -48 149 -10 212 -16 237
-20 185 -32 235 -18 341 96 28 30 118 77 183 95 28 8 69 42 83 69 10 19 45
111 89 234 22 64 20 124 -10 239 -16 62 -21 108 -20 191 2 107 1 112 -31 169
-36 64 -79 121 -125 168 -80 81 -104 88 -202 65z m-228 -90 c-3 -5 -12 -10
-18 -10 -7 0 -6 4 3 10 19 12 23 12 15 0z m489 -912 c-3 -4 -9 -8 -15 -8 -5 0
-9 4 -9 8 0 5 7 9 15 9 8 0 12 -4 9 -9z"/>
</g>
</svg>
