<?xml version="1.0" encoding="utf-8"?>
<!-- Generator: Adobe Illustrator 19.0.0, SVG Export Plug-In . SVG Version: 6.00 Build 0)  -->
<svg version="1.1" id="Layer_1" xmlns="http://www.w3.org/2000/svg" xmlns:xlink="http://www.w3.org/1999/xlink" x="0px" y="0px"
	 viewBox="0 0 757.4 120.8" style="enable-background:new 0 0 757.4 120.8;" xml:space="preserve">
<style type="text/css">
	.st0{fill:#5C3F1A;}
	.st1{fill:#FFFFFF;}
	.st2{fill:none;}
	.st3{fill:#E89E3B;}
	.st4{fill:#5C401B;}
	.st5{fill:#C1842F;}
	.st6{fill:#21150D;}
	.st7{fill:#3B2315;}
	.st8{fill:#5C411C;}
</style>
<g id="XMLID_14_">
	<path id="XMLID_27_" class="st0" d="M68.1,9.6c2.4,2.8,3.7,6.1,3.7,10.1c0,4.6-1.9,8-5.8,10.2c-1.6,1-5.7,2.4-12.2,4.1
		c-8,2.2-13,4.9-15.1,8.1c-3.3,4.8-4.9,11.4-4.9,19.9c0,8,2,14.7,6,20.2c4.5,3,8.8,4.4,13,4.4c4.6,0,9.6-1.7,15-5.2
		c1.9-0.9,3.8-1.4,5.7-1.4c3.2,0,5.7,1.2,7.5,3.5c1.6,2.1,2.4,4.5,2.4,7.2c0,0.4,0,0.8,0,1.1c-0.5,6.3-1.9,11-4.1,14.1
		c-2.2,3.1-6.8,6-13.8,8.9c-4.7,2-9.4,3.1-14.1,3.1c-3.6,0-8.7-0.8-15.5-2.4c-9.2-3.6-14.1-5.6-14.8-6c-3.2-1.8-6.6-5-10.2-9.6
		c-3.4-4.1-6-10.7-8-19.9c-1.4-7.5-2.1-14.8-2.1-21.7c0-6.4,0.6-11.5,1.8-15.1c6-12.4,14-22.2,24-29.4c5.9-4.3,11.9-7,18.1-8.1
		C46,5.4,50.7,5,58.6,4.4C62.6,5.2,65.7,6.9,68.1,9.6z"/>
	<path id="XMLID_32_" class="st0" d="M157.3,20.4c6.9,8.7,11.7,22.2,14.2,40.7c0,1.4,0,2.9,0,4.3c0,12.5-0.9,21.7-2.6,27.5
		c-2.1,7.4-6.8,14.2-13.9,20.2c-9.7,3.3-18.2,4.9-25.5,4.9c-7.9,0-15-1.8-21.4-5.4c-5.7-6.4-9.8-12.8-12.2-19.1
		c-2.3-6.3-3.5-13.9-3.5-22.6c0-4.7,0.4-10,1.1-16.1c3.1-13.6,5.8-23.1,8.1-28.8c4.5-11,10.2-18.1,17.3-21.1
		C135.9,4.9,148.8,10.1,157.3,20.4z M132.8,75.3c5.1,0,8.6-1.8,10.4-5.4c1.5-2.8,2.3-6.9,2.3-12.5c0-3.9-1.7-7-5.2-9.5
		c-3.5-2.3-7.2-3.4-11.2-3.1c-1.8,0.2-3.7,3.1-5.7,8.7c-1.5,4.6-2.3,8.3-2.4,11.2C120.6,71.8,124.5,75.3,132.8,75.3z"/>
	<path id="XMLID_36_" class="st0" d="M249.2,20.4c6.9,8.7,11.7,22.2,14.2,40.7c0,1.4,0,2.9,0,4.3c0,12.5-0.9,21.7-2.6,27.5
		c-2.1,7.4-6.8,14.2-13.9,20.2c-9.7,3.3-18.2,4.9-25.5,4.9c-7.9,0-15-1.8-21.4-5.4c-5.7-6.4-9.8-12.8-12.2-19.1
		c-2.3-6.3-3.5-13.9-3.5-22.6c0-4.7,0.4-10,1.1-16.1c3.1-13.6,5.8-23.1,8.1-28.8c4.5-11,10.2-18.1,17.3-21.1
		C227.9,4.9,240.7,10.1,249.2,20.4z M224.7,75.3c5.1,0,8.6-1.8,10.4-5.4c1.5-2.8,2.3-6.9,2.3-12.5c0-3.9-1.7-7-5.2-9.5
		c-3.5-2.3-7.2-3.4-11.2-3.1c-1.8,0.2-3.7,3.1-5.7,8.7c-1.5,4.6-2.3,8.3-2.4,11.2C212.5,71.8,216.5,75.3,224.7,75.3z"/>
	<path id="XMLID_41_" class="st0" d="M277.7,9.5c0.5-3.6,4.8-5.4,12.9-5.4c10.1,0,15.3,2.8,15.8,8.3c0.3,1.7,0.5,3.9,0.5,6.6v4
		c-0.1,3.7-0.2,5-0.2,4.1c0,5.8,1.4,9.5,4.1,11c3.7,0.7,6.7-1.5,9.2-6.7c1.1-2.5,3.4-7.6,6.7-15.1c3.2-5.6,6.9-8.4,11.2-8.4
		s8.4,1.6,12.4,4.7c4,3.2,6,6.8,6,11c0,1.2-0.2,2.5-0.6,3.8c-1.8,5.9-5.7,12.1-11.5,18.7c-5.3,5.9-10.9,10.6-16.8,14.1
		c5.9,2.9,11.8,8,17.6,15.3c7,9,11.1,18,12.1,27.1c0,0.3,0,0.7,0,1.1c0,3.7-1.8,6.7-5.4,9.2c-3.5,2.3-7.4,3.5-11.8,3.5
		c-4.1,0-7.4-1-9.9-3.1c-1.8-2.2-3.8-6.1-5.8-11.5c-2.6-6.4-4.3-10.4-5.4-11.9c-2.3-3.7-5-5.5-8-5.5c-0.8,0-1.7,0.1-2.8,0.3
		c-2.3,1.4-3.5,4.2-3.5,8.3c0,3.9,1.2,9.6,3.5,17.1c-1.2,5.4-5.9,8.1-13.9,8.1c-4.5,0-8.3-1.1-11.5-3.2c-3.4-2.3-5.2-5.7-5.4-9.9
		c-1.3-28.9-2-47.2-2-55.1C275.2,33.2,276,19.7,277.7,9.5z"/>
	<path id="XMLID_44_" class="st0" d="M369.7,11.3c1.8-3.5,6.4-5.2,13.8-5.2c8,0,13,1.9,15.1,5.8c1.6,3,2.4,20.6,2.4,52.8
		c0,28.4-0.7,44.7-2,49.1c-1.4,3.5-6.5,5.2-15.1,5.2c-8,0-12.6-1.6-13.9-4.7c-2.3-5.2-3.5-23.8-3.5-55.7
		C366.5,29.8,367.6,14.1,369.7,11.3z"/>
	<path id="XMLID_50_" class="st0" d="M423.6,13.6c4.1-5.5,13.8-8.3,29.2-8.3c11.4,0,21.6,1.9,30.6,5.7c3.4,4.2,5,8.2,5,12.1
		c0,3.2-1.2,5.7-3.7,7.6c-0.7,0.5-1.7,0.8-3.1,0.8c-1.6,0-4.3-0.4-8-1.1c-3.7-0.7-6.5-1.1-8.4-1.1c-4,0-7.4,0.9-10.2,2.8
		c-3.4,2-5,4.9-5,8.7c0,3.4,1.1,5.7,3.4,6.9c2.1,1.6,6.9,2.7,14.2,3.1c8.2,0.5,13.1,1,14.8,1.5c2.5,1.6,3.8,4.6,3.8,8.9
		c0,3.3-1.1,5.6-3.4,6.9c-1.7,0.3-3.9,0.5-6.6,0.5h-4.1c-3.8-0.1-5.2-0.2-4.1-0.2c-7.9,0-12.9,1.7-15.1,5.2
		c0.5,12.3,12.5,18.3,36.1,17.7c4,1.1,6,4.6,6,10.6c0,5.9-2.6,10-7.8,12.4c-5.6,2.7-14.7,4-27.4,4c-20.5,0-33.3-4.6-38.6-13.8
		c-4-7.1-6-21.6-6-43.4C415.3,36.9,418.1,21.1,423.6,13.6z"/>
	<path id="XMLID_55_" class="st0" d="M620,19.3c0,6.8-4.5,10.8-13.5,11.9c-6,0.7-10.5,2.5-13.5,5.4c-3,3-5.1,7.5-6.4,13.6
		c-0.6,5.5-0.9,10-0.9,13.6c0,5,0.6,8.6,1.7,10.7c3.6,6.8,7.5,10.2,11.9,10.2c2.3,0,4.4-1,6.1-3.1c1.6-1.9,2.4-4.2,2.4-6.7
		c0-1.4-0.3-2.8-0.9-4c-5.1-4.4-7.5-8.8-7.2-13.3c1.8-3.2,3.5-4.9,5-5.4c0.3-0.1,3-0.2,8-0.2c4.3,0.5,7.6,2.2,10.1,5.2
		c2.2,3.3,4.4,6.6,6.6,10.1c1.3,4,2,8.1,2,12.2c0,9.6-2.9,18-8.6,25.2c-5.6,7.2-13.1,11.8-22.3,13.6c-11.2,0-20.7-2.5-28.5-7.6
		c-4.4-2.9-9.6-7.7-15.6-14.5c-3.7-7.1-5.5-16.8-5.5-28.9c0-7,0.7-15.1,2-24.2c7.6-25.9,22.8-38.9,45.4-38.9
		C612.8,4.4,620,9.4,620,19.3z"/>
</g>
<image style="overflow:visible;" width="815" height="146" id="XMLID_6_" xlink:href="6FE84E66.jpg"  transform="matrix(0.191 0 0 0.191 741.8594 -192.89)">
</image>
<image style="overflow:visible;" width="501" height="422" id="XMLID_11_" xlink:href="6FE84E6A.jpg"  transform="matrix(1 0 0 1 1206.844 49.282)">
</image>
<g id="XMLID_2_">
	<g id="XMLID_4_">
		<path id="XMLID_9_" class="st1" d="M755.7,61.3c0-1.4-0.1-2.9-0.2-4.3c-4.5,1.6-9.7,0.6-13.2-2.9c-2.8-2.8-4-6.5-3.7-10.1
			c-5.3,1.4-11.2,0-15.4-4.2c-3.9-3.9-5.3-9.2-4.4-14.3c-3.2-0.1-6.3-1.3-8.7-3.7c-4.5-4.5-4.9-11.4-1.3-16.4
			c-3.2-0.6-6.4-0.9-9.8-0.9c-13.3,0-25.5,4.6-35.1,12.2c9-6,19.8-9.5,31.4-9.5c3.3,0,6.6,0.3,9.8,0.9c-3.6,5-3.2,11.9,1.3,16.4
			c2.4,2.4,5.6,3.6,8.7,3.7c-0.9,5,0.5,10.4,4.4,14.3c4.2,4.2,10.1,5.6,15.4,4.2c-0.3,3.6,0.9,7.4,3.7,10.1
			c3.6,3.6,8.8,4.6,13.2,2.9c0.1,1.4,0.2,2.8,0.2,4.3c0,18.1-8.5,34.1-21.6,44.5C745.6,98.3,755.7,81,755.7,61.3z"/>
		<path id="XMLID_7_" class="st2" d="M754.5,57.8c-4.8,1.1-9.5,0-13.2-3.4c-2.6-2.8-3.8-6-3.7-9.8c-11.3,1.8-21.4-6.8-19.9-18.6
			c-4.6-0.5-8.7-2.8-10.9-7c-1.2-2.2-1.6-4.7-1.4-7.2c0.1-1.4,0.5-2.7,1-4c0.6-1.4,1.1-1.5-0.3-2.2c-1.7-0.9-4.8-0.5-6.8-0.5
			c-1.7,0-3.4,0-5,0.2c-2.9,0.2-5.8,0.7-8.6,1.4c-5.5,1.3-10.8,3.5-15.6,6.5c-9,5.5-16.2,13.6-20.8,22.9c-0.4,2.9-0.6,5.9-0.6,8.9
			c0,37.6,30.6,68.3,68.3,68.3c1.3,0,2.6,0,3.8-0.1c2.9-1.2,5.7-2.7,8.4-4.4C746.1,97.6,755.6,77.9,754.5,57.8z"/>
		<path id="XMLID_8_" class="st2" d="M741.3,54.5c-2.6-2.8-3.8-6-3.7-9.8c-11.3,1.8-21.4-6.8-19.9-18.6c-4.6-0.5-8.7-2.8-10.9-7
			c-1.2-2.2-1.6-4.7-1.4-7.2c0.1-1.4,0.5-2.7,1-4c0.6-1.4,1.1-1.5-0.3-2.2c-1.7-0.9-4.8-0.5-6.8-0.5c-1.7,0-3.4,0-5,0.2
			c-2.9,0.2-5.8,0.7-8.6,1.4c-5.5,1.3-10.7,3.5-15.5,6.5c7.6-3.8,16.1-5.9,25.2-5.9c3.3,0,6.6,0.3,9.8,0.9c-3.6,5-3.2,11.9,1.3,16.4
			c2.4,2.4,5.6,3.6,8.7,3.7c-0.9,5,0.5,10.4,4.4,14.3c4.2,4.2,10.1,5.6,15.4,4.2c-0.3,3.6,0.9,7.4,3.7,10.1
			c3.6,3.6,8.8,4.6,13.2,2.9c0.1,1.4,0.2,2.8,0.2,4.3c0,14.9-5.8,28.5-15.2,38.6c12.1-11.4,18.6-27.9,17.7-44.8
			C749.7,59,745,57.9,741.3,54.5z"/>
		<path id="XMLID_15_" class="st3" d="M753.1,59c-4.5,1.6-9.8,0.6-13.4-3c-2.8-2.8-4-6.6-3.7-10.3c-5.4,1.4-11.4,0-15.6-4.2
			c-3.9-3.9-5.4-9.3-4.5-14.4c-3.2-0.1-6.4-1.3-8.8-3.7c-4.5-4.5-4.9-11.6-1.3-16.6c-3.2-0.6-6.5-0.9-9.9-0.9
			c-9.1,0-17.8,2.2-25.5,6c0,0,0,0-0.1,0c-9.1,5.6-16.4,13.7-21,23.1c-4.1,8.2-6.2,17.4-6,26.8c0.5,19.5,11.2,37.8,28,47.7
			c15.3,9,34.1,10.2,50.3,3.4c2.9-1.2,5.8-2.7,8.5-4.5c2.8-1.8,5.4-3.9,7.8-6.1c9.5-10.2,15.4-24,15.4-39
			C753.3,61.9,753.2,60.5,753.1,59z"/>
		<path id="XMLID_23_" class="st4" d="M756.6,56.7c0-0.4-1-0.3-1.2-0.2c-4.5,1.4-8.7,0.3-12.1-2.8c-2.6-2.8-3.8-6-3.6-9.9
			c0-0.6-0.9-0.5-1.2-0.4c-11.1,2.5-20.3-7.2-18.6-18c0.1-0.4-0.4-0.4-0.6-0.5c-9.9-0.6-14.8-11.5-9.4-19.5c0.2-0.3,0-0.5-0.3-0.6
			c-19-3.1-38.6,2.9-52.1,16.8c-0.3,0.3-0.6,0.7-0.9,1c-12.4,13.5-17.8,32.5-14.1,50.5c3.6,17.6,15.9,32.8,32.2,40.3
			c0.7,0.3,1.5,0.7,2.2,1c15.2,6.2,32.7,5.5,47.4-1.6c0.2-0.1,0.3-0.2,0.5-0.3c1.4-0.7,2.8-1.4,4.2-2.3
			C747.4,99,758,78.3,756.6,56.7z M736.8,102.6c-2.4,2.2-4.9,4.2-7.7,6c-2.7,1.7-5.5,3.2-8.4,4.4c-15.9,6.7-34.6,5.5-49.7-3.4
			c-16.6-9.8-27.2-27.9-27.7-47.1c-0.2-9.3,1.9-18.4,5.9-26.5c4.6-9.3,11.8-17.3,20.8-22.9c0,0,0,0,0.1,0c4.8-2.9,10.1-5.1,15.5-6.5
			c2.8-0.7,5.7-1.1,8.6-1.4c1.7-0.1,3.4-0.2,5-0.2c1.9,0,5.1-0.3,6.8,0.5c1.4,0.7,0.9,0.8,0.3,2.2c-0.6,1.3-0.9,2.6-1,4
			c-0.2,2.5,0.2,5,1.4,7.2c2.2,4.2,6.3,6.5,10.9,7c-1.5,11.8,8.6,20.4,19.9,18.6c-0.1,3.8,1.2,7,3.7,9.8c3.7,3.4,8.4,4.5,13.2,3.4
			C755.4,74.7,748.9,91.2,736.8,102.6z"/>
		<path id="XMLID_10_" class="st5" d="M648.6,44.9c0-3,0.2-6,0.6-8.9c-4,8.1-6.2,17.2-5.9,26.5c0.5,19.3,11.1,37.4,27.7,47.1
			c15.1,8.9,33.8,10.1,49.7,3.4c-1.3,0.1-2.5,0.1-3.8,0.1C679.2,113.2,648.6,82.5,648.6,44.9z"/>
	</g>
	<path id="XMLID_5_" class="st6" d="M670.5,21c-0.6,1.2-1.3,2.4-2.5,3c-0.5,0.2-1.1,0.3-1.6,0.7c-0.6,0.5-0.8,1.4-0.9,2.3
		c-0.1,0.6-0.1,1.2-0.2,1.8c-0.1,0.9-0.2,1.8,0.2,2.7c0.5,1.1,1.9,1.7,3.1,1.7s2.4-0.5,3.6-0.9c1.2-0.5,2.3-0.9,3.6-0.9
		c1.1,0,2.3,0.3,3.3-0.2c1-0.6,1.2-2,1.2-3.3c0-0.9-0.1-1.9-0.6-2.6c-0.4-0.6-1-0.9-1.7-1.3c-2-1.1-4.1-2.1-6.2-3L670.5,21z"/>
	<path id="XMLID_48_" class="st7" d="M670.9,20.5c-0.6,1.2-1.3,2.4-2.5,3c-0.5,0.2-1.1,0.3-1.6,0.7c-0.6,0.5-0.8,1.4-0.9,2.3
		c-0.1,0.6-0.1,1.2-0.2,1.8c-0.1,0.9-0.2,1.8,0.2,2.7c0.5,1.1,1.9,1.7,3.1,1.7s2.4-0.5,3.6-0.9c1.2-0.5,2.3-0.9,3.6-0.9
		c1.1,0,2.3,0.3,3.3-0.2c1-0.6,1.2-2,1.2-3.3c0-0.9-0.1-1.9-0.6-2.6c-0.4-0.6-1-0.9-1.7-1.3c-2-1.1-4.1-2.1-6.2-3L670.9,20.5z"/>
	<path id="XMLID_18_" class="st7" d="M672.9,70.6c-0.7,0.3-1.1,0.9-1.3,1.7c-1.8-0.3-2.4,1.2-2.4,2.7c0,0.7,0.6,1.1,1.1,1.6
		c0.2,0.3,0.5,0.6,0.6,1c0,0.2,0,0.3,0.1,0.5c0.2,0.6,0.8,0.8,1,1.4c0.2,0.5,0.3,1,0.8,1.3c0.7,0.3,1.7,0.2,2.4,0.2
		c1.1-0.1,2.7,0.1,3.4-0.9c0.4-0.5,0.4-1.2,0.3-1.8c-0.2-0.7-0.2-1.3-0.3-2.1c-0.1-0.5,0-0.8,0-1.3c0.2-1,0.2-1.8-0.4-2.7
		c-1.1-1.6-3.1-2.2-4.9-1.7C673.1,70.5,673,70.5,672.9,70.6z"/>
	<path id="XMLID_17_" class="st7" d="M714.6,52.8C714.6,52.9,714.6,52.9,714.6,52.8c-0.1,0.1-0.2,0.2-0.2,0.2
		c-0.1,0-0.2,0.1-0.3,0.1c-0.1,0-0.1,0.1-0.2,0.2c-0.1,0.2-0.2,0.3-0.4,0.5c-0.1,0.1-0.1,0.2-0.2,0.3c0,0.1,0,0.2-0.1,0.3
		c0,0.3-0.1,0.7-0.1,1c0,0.2,0,0.4,0.1,0.6c0,0,0.1,0.1,0.1,0.1c0.1,0.1,0,0.3,0.2,0.4c0.1,0.1,0.3,0.1,0.4,0.1
		c0.3,0.1,0.6,0.2,0.8,0.5c0.3,0.4,0.3,1,0.4,1.4c0.1,0.9,0.4,1.8,0.9,2.5c1.4,1.9,2.7,1,3.9-0.2c1.2-1.1,3.1-2.5,3.2-4.2
		c0.1-1.5-0.4-3.1-1.5-4.2c-0.6-0.6-1.3-1-2-1.3c-0.8,0.2-1.6,0.5-2.4,0.7c-0.6,0.2-1.2,0.3-1.7,0.5c-0.2,0.1-0.4,0.1-0.6,0.1
		C714.8,52.7,714.7,52.7,714.6,52.8C714.6,52.8,714.6,52.8,714.6,52.8z"/>
	<g id="XMLID_34_">
		<path id="XMLID_46_" class="st6" d="M719.9,60c-1.2,1.1-2.4,2-3.9,0.2c-0.5-0.7-0.8-1.6-0.9-2.5c-0.1-0.5-0.1-1-0.4-1.4
			c-0.2-0.3-0.4-0.4-0.8-0.5c-0.1,0-0.3,0-0.4-0.1c-0.1-0.1-0.1-0.2-0.2-0.4c0,0,0-0.1-0.1-0.1c0-0.1-0.1-0.1-0.1-0.2
			c0,0.2,0,0.4,0,0.6c0,0.2,0,0.4,0.1,0.6c0,0,0.1,0.1,0.1,0.1c0.1,0.1,0,0.3,0.2,0.4c0.1,0.1,0.3,0.1,0.4,0.1
			c0.3,0.1,0.6,0.2,0.8,0.5c0.3,0.4,0.3,1,0.4,1.4c0.1,0.9,0.4,1.8,0.9,2.5c1.4,1.9,2.7,1,3.9-0.1c1.2-1.1,3.1-2.5,3.2-4.2
			c0-0.3,0-0.6,0-0.9C723,57.5,721.1,58.9,719.9,60z"/>
		<path id="XMLID_49_" class="st7" d="M713.4,55.2c0.1,0.1,0,0.3,0.2,0.4c0.1,0.1,0.3,0.1,0.4,0.1c0.3,0.1,0.6,0.2,0.8,0.5
			c0.3,0.4,0.3,1,0.4,1.4c0.1,0.9,0.4,1.8,0.9,2.5c1.4,1.9,2.7,1,3.9-0.2c1.1-1.1,3-2.4,3.2-4.1c0,0,0,0,0,0
			c0.1-1.5-0.4-3.1-1.5-4.2c-0.6-0.6-1.3-1-2-1.3c-0.8,0.2-1.6,0.5-2.4,0.7c-0.6,0.2-1.2,0.3-1.7,0.5c-0.2,0.1-0.4,0.1-0.6,0.1
			c-0.1,0-0.2,0.1-0.3,0.1c0,0,0,0,0,0.1c0,0,0,0.1-0.1,0.1c-0.1,0.1-0.1,0.1-0.2,0.1c-0.1,0-0.2,0.1-0.3,0.1
			c-0.1,0-0.1,0.1-0.2,0.2c-0.1,0.2-0.2,0.3-0.4,0.5c-0.1,0.1-0.1,0.2-0.2,0.3c0,0.1,0,0.2-0.1,0.3c0,0.3-0.1,0.7-0.1,1
			c0,0.1,0,0.2,0,0.4c0,0.1,0,0.2,0.1,0.2C713.4,55.1,713.4,55.2,713.4,55.2z"/>
	</g>
	<path id="XMLID_19_" class="st6" d="M696.7,92.7c-0.8,0-1.6,0-2.4,0c-0.2,0.5-0.1,1,0.1,1.5s0.6,0.8,1,1.2c0.4,0.4,0.8,0.7,1.3,1
		c0.7,0.3,1.5,0.3,2.2,0.3c0.5,0,1.1-0.1,1.3-0.5c0.2-0.4,0-0.9-0.3-1.2c-0.3-0.3-0.7-0.7-0.8-1.1L696.7,92.7z"/>
	<path id="XMLID_31_" class="st7" d="M696.7,92.1c-0.8,0-1.6,0-2.4,0c-0.2,0.5-0.1,1,0.1,1.5s0.6,0.8,1,1.2c0.4,0.4,0.8,0.7,1.3,1
		c0.7,0.3,1.5,0.3,2.2,0.3c0.5,0,1.1-0.1,1.3-0.5c0.2-0.4,0-0.9-0.3-1.2c-0.3-0.3-0.7-0.7-0.8-1.1L696.7,92.1z"/>
	<path id="XMLID_25_" class="st6" d="M693.7,60.1c-0.5-0.1-1-0.1-1.5,0c-0.4,0-0.8,0.3-0.8,0.7c0,0.1,0,0.2,0,0.3
		c0,0.1-0.1,0.2-0.1,0.3c-0.1,0.3-0.1,0.4,0.1,0.6c0.1,0.2,0.2,0.4,0.3,0.6c0.2,0.4,0.6,0.8,1,1c0.5,0.3,1.1,0.5,1.6,0.2
		c0.4-0.2,0.6-0.6,0.7-1c0.2-0.6,0.3-1.3,0.1-1.9C694.7,60.4,694.2,60.2,693.7,60.1z"/>
	<path id="XMLID_42_" class="st7" d="M693.7,59.8c-0.5-0.1-1-0.1-1.5,0c-0.4,0-0.8,0.3-0.8,0.7c0,0.1,0,0.2,0,0.3
		c0,0.1-0.1,0.2-0.1,0.3c-0.1,0.3-0.1,0.4,0.1,0.6c0.1,0.2,0.2,0.4,0.3,0.6c0.2,0.4,0.6,0.8,1,1c0.5,0.3,1.1,0.5,1.6,0.2
		c0.4-0.2,0.6-0.6,0.7-1c0.2-0.6,0.3-1.3,0.1-1.9C694.7,60.1,694.2,59.9,693.7,59.8z"/>
	<path id="XMLID_20_" class="st6" d="M716.7,74.7c-2.8,0.1-5,2.8-7.8,2.8c-0.2,0-0.5,0-0.7,0.1c-0.3,0.2-0.3,0.6-0.2,1
		c0.1,0.8,0.1,1.6,0.2,2.5c0.1,1.1,0.3,2.4,1.2,3c0.5,0.3,1.1,0.4,1.6,0.4c1.8,0.2,3.6,0.3,5.3,0.3c1.6,0.1,3.3,0.1,4.7-0.8
		c1.5-0.9,2.3-2.7,2.1-4.3c-0.2-1.1-0.7-2.1-1.3-2.9c-0.9-1.2-2.2-2.5-3.7-2.1L716.7,74.7z"/>
	<path id="XMLID_37_" class="st7" d="M715.9,74.7c-2.8,0.1-5,2.8-7.8,2.8c-0.2,0-0.5,0-0.7,0.1c-0.3,0.2-0.3,0.6-0.2,1
		c0.1,0.8,0.1,1.6,0.2,2.5c0.1,1.1,0.3,2.4,1.2,3c0.5,0.3,1.1,0.4,1.6,0.4c1.8,0.2,3.6,0.3,5.3,0.3c1.6,0.1,3.3,0.1,4.7-0.8
		c1.5-0.9,2.3-2.7,2.1-4.3c-0.2-1.1-0.7-2.1-1.3-2.9c-0.9-1.2-2.2-2.5-3.7-2.1L715.9,74.7z"/>
	<path id="XMLID_24_" class="st6" d="M668.5,43.3c-0.4,0.3-2.2,0-2.8,0c-1,0-1.5,1-1.8,1.9c-0.1,0.4-0.1,0.8-0.1,1.3
		c0,1,0,2-0.1,2.9c0,0.4,0,0.8,0.2,1.1c0.2,0.2,0.4,0.4,0.6,0.5c1.5,0.8,2.9,1.1,4.5,1.3c1,0.1,2.1,0,2.6-0.8
		c0.6-0.8,0.3-2.2,1.2-2.8c0.4-0.3,1-0.3,1.5-0.4c0.9-0.3,1.5-1.3,1.6-2.3c0.1-1-0.2-2.1-0.6-3c-0.3-0.6-0.4-1.4-0.8-1.9
		c-0.1-0.2-0.3-0.3-0.4-0.4c-1.4-1.1-2.5,0.2-3.6,1.1C669.9,42.3,669.2,42.8,668.5,43.3z"/>
	<path id="XMLID_45_" class="st7" d="M669,42.8c-0.4,0.3-2.2,0-2.8,0c-1,0-1.5,1-1.8,1.9c-0.1,0.4-0.1,0.8-0.1,1.3c0,1,0,2-0.1,2.9
		c0,0.4,0,0.8,0.2,1.1c0.2,0.2,0.4,0.4,0.6,0.5c1.5,0.8,2.9,1.1,4.5,1.3c1,0.1,2.1,0,2.6-0.8c0.3-0.4,0.3-0.8,0.4-1.3
		c0.1-0.7,0.3-0.7,1-0.9c0.2-0.1,0.5-0.1,0.7-0.3c1.1-0.7,2.1-1.8,2.3-3.1c0.1-1-0.2-2.1-0.6-3c-0.3-0.6-0.4-1.4-0.8-1.9
		c-0.1-0.2-0.3-0.3-0.4-0.4c-1.4-1.1-2.5,0.2-3.6,1.1C670.4,41.8,669.7,42.3,669,42.8z"/>
	<path id="XMLID_26_" class="st6" d="M700.6,37.4c-0.4,0.2-0.9,0.4-1.2,0.7s-0.5,0.9-0.2,1.3c0.3,0.5,1,0.6,1.6,0.6
		c0.2,0.4-0.1,1.2,0.4,1.1c0.2,0,0.3-0.3,0.4-0.6c0-0.4,0-0.9,0-1.3L700.6,37.4z"/>
	<path id="XMLID_54_" class="st7" d="M701,37c-0.4,0.2-0.9,0.4-1.2,0.7c-0.3,0.3-0.5,0.9-0.2,1.3c0.3,0.5,1,0.6,1.6,0.6
		c0.2,0.4-0.1,1.2,0.4,1.1c0.2,0,0.3-0.3,0.4-0.6c0-0.4,0-0.9,0-1.3L701,37z"/>
	<path id="XMLID_28_" class="st6" d="M664.2,95.9c-0.7,0.3-0.5,1.3-0.2,2c0.1,0.3,0.2,0.5,0.5,0.7c0.2,0.2,0.6,0.2,0.8,0
		c0-0.2,0.1-0.4,0.1-0.5c0.9,0.2,1.9-0.5,2-1.4L664.2,95.9z"/>
	<path id="XMLID_39_" class="st7" d="M664.2,95.3c-0.7,0.3-0.5,1.3-0.2,2c0.1,0.3,0.2,0.5,0.5,0.7c0.2,0.2,0.6,0.2,0.8,0
		c0-0.2,0.1-0.4,0.1-0.5c0.9,0.2,1.9-0.5,2-1.4L664.2,95.3z"/>
	<g id="XMLID_3_">
		<path id="XMLID_12_" class="st5" d="M748.2,34.4c-0.6,0.5-1.3,0.9-2,0.8c-0.3,0-0.6-0.2-1-0.3c-1.2-0.3-2.4,0-3.6-0.3
			c0-0.5-0.3-1-0.7-1.3s-0.9-0.5-1.3-0.7c-0.8-0.4-1.6-0.9-2.3-1.4c-0.2-0.2-0.4-0.3-0.5-0.6c0-0.2,0-0.4,0.1-0.6
			c0.3-0.6,0.6-1.2,0.9-1.8c0.3-0.4,0.6-0.9,0.5-1.4c-0.1-0.9-1.2-1.2-2-1.5c-0.2-0.1-0.5-0.2-0.7-0.4c-0.9,0.4-1.9,0.8-2.9,1.2
			c0.4,0.6,1,1.1,1.7,1.4c0.8,0.4,1.9,0.6,2,1.5c0.1,0.5-0.3,1-0.5,1.4c-0.4,0.6-0.7,1.2-0.9,1.8c-0.1,0.2-0.2,0.4-0.1,0.6
			c0.1,0.2,0.3,0.4,0.5,0.6c0.7,0.6,1.5,1,2.3,1.4c0.5,0.2,0.9,0.4,1.3,0.7c0.4,0.3,0.7,0.8,0.7,1.3c1.2,0.3,2.5,0,3.6,0.3
			c0.3,0.1,0.6,0.2,1,0.3c0.7,0.1,1.5-0.4,2-0.8c0.6-0.5,1.1-1.1,1.8-1.4c0.6-0.3,1.4-0.3,1.9-0.8c0.4-0.4,0.5-1,0.6-1.5
			c-0.2,0.1-0.4,0.1-0.6,0.2C749.3,33.3,748.8,33.9,748.2,34.4z"/>
		<path id="XMLID_13_" class="st2" d="M748.2,34.4c-0.6,0.5-1.3,0.9-2,0.8c-0.3,0-0.6-0.2-1-0.3c-1.2-0.3-2.4,0-3.6-0.3
			c0-0.5-0.3-1-0.7-1.3s-0.9-0.5-1.3-0.7c-0.8-0.4-1.6-0.9-2.3-1.4c-0.2-0.2-0.4-0.3-0.5-0.6c0-0.2,0-0.4,0.1-0.6
			c0.3-0.6,0.6-1.2,0.9-1.8c0.3-0.4,0.6-0.9,0.5-1.4c-0.1-0.9-1.2-1.2-2-1.5c-0.2-0.1-0.3-0.2-0.5-0.3c-0.9,0.4-1.7,0.8-2.6,1.1
			c0.8,0.9,1.9,1.1,2.9,1.8c0.5,0.4,0.8,0.9,0.6,1.5c-0.4,1.5-2.5,2.8-0.7,4.1c1,0.7,2.3,1.1,3.2,1.8c0.3,0.2,0.4,0.4,0.6,0.7
			c0.7,0.9,0.8,0.7,2,0.7c1.7,0,3.1,0.7,4.6-0.6c0.6-0.6,1.2-0.9,1.9-1.3c0.9-0.4,1.5-0.6,1.8-1.6c0-0.1,0.1-0.2,0.1-0.3
			c-0.1,0-0.2,0.1-0.3,0.1C749.3,33.3,748.8,33.9,748.2,34.4z"/>
		<path id="XMLID_16_" class="st3" d="M750.5,27.1c-0.1-1.2,0.2-2.2-0.4-3.3c-0.5-0.9-1.6-2.7-2.8-2.7c-0.3,0-0.6,0.1-0.8,0.2
			c-2.3,0.5-4.5,1-6.8,1.4c-1.2,0.9-2.5,1.7-3.8,2.3c0.2,0.1,0.3,0.2,0.5,0.3c0.8,0.4,1.9,0.6,2,1.5c0.1,0.5-0.3,1-0.5,1.4
			c-0.4,0.6-0.7,1.2-0.9,1.8c-0.1,0.2-0.2,0.4-0.1,0.6c0.1,0.2,0.3,0.4,0.5,0.6c0.7,0.6,1.5,1,2.3,1.4c0.5,0.2,0.9,0.4,1.3,0.7
			s0.7,0.8,0.7,1.3c1.2,0.3,2.5,0,3.6,0.3c0.3,0.1,0.6,0.2,1,0.3c0.7,0.1,1.5-0.4,2-0.8c0.6-0.5,1.1-1.1,1.8-1.4
			c0.1,0,0.2-0.1,0.3-0.1c0.1-0.3,0.2-0.7,0.4-1c0.4-1,0.5-1.7,0.3-2.7C750.8,28.5,750.6,27.8,750.5,27.1z"/>
		<path id="XMLID_65_" class="st8" d="M751.1,26.9c-0.1-1,0.3-2.1-0.2-3c-0.4-0.9-1.4-2.2-2.1-2.8c-0.3-0.3-0.7-0.6-1.2-0.6
			c-0.6,0-1.3,0.3-1.9,0.4c-2.1,0.4-4.1,0.9-6.2,1.3c-0.1,0-0.1,0-0.2,0.1c-1.2,0.9-2.5,1.7-3.9,2.3c-0.9,0.4-1.8,0.8-2.7,1.1
			c-0.1,0-0.3,0.2-0.2,0.3c0.6,0.8,1.4,1.2,2.3,1.7c0.8,0.3,0.8,0.3,1,1.2c0.2,0.9,0.1,0.8-0.3,1.5c-0.3,0.5-0.9,1.3-0.9,1.9
			c-0.2,2.3,4.5,2.2,4.8,4.5c0,0.1,0.1,0.1,0.2,0.1c1.4,0.2,2.7,0.1,4,0.4c0.6,0.1,1.1,0.2,1.7,0c0.9-0.3,1.5-1.1,2.2-1.7
			c0.8-0.6,1.9-0.6,2.6-1.3c0.5-0.5,0.6-1.1,0.8-1.7c0,0,0,0,0-0.1c0.3-0.8,0.8-1.6,0.8-2.5C751.7,29.1,751.2,28,751.1,26.9z
			 M750.6,31.9c-0.1,0.3-0.2,0.7-0.4,1c0,0.1-0.1,0.2-0.1,0.3c-0.3,1-0.9,1.2-1.8,1.6c-0.8,0.4-1.3,0.7-1.9,1.3
			c-1.5,1.3-2.9,0.6-4.6,0.6c-1.2,0-1.3,0.1-2-0.7c-0.2-0.3-0.3-0.5-0.6-0.7c-0.9-0.8-2.2-1.1-3.2-1.8c-1.8-1.3,0.4-2.6,0.7-4.1
			c0.2-0.7-0.1-1.1-0.6-1.5c-1-0.7-2-0.9-2.9-1.8c0.9-0.3,1.8-0.7,2.6-1.1c1.3-0.6,2.6-1.4,3.8-2.3c2.3-0.5,4.5-1,6.8-1.4
			c0.3-0.1,0.6-0.2,0.8-0.2c1.2,0,2.2,1.8,2.8,2.7c0.6,1.1,0.3,2.1,0.4,3.3c0.1,0.7,0.3,1.4,0.4,2.1C751.1,30.2,751,30.9,750.6,31.9
			z"/>
		<path id="XMLID_29_" class="st1" d="M750.9,29.2c-0.1-0.7-0.4-1.4-0.4-2.1c-0.1-1.2,0.2-2.2-0.4-3.3c-0.5-0.9-1.6-2.7-2.8-2.7
			c-0.3,0-0.6,0.1-0.8,0.2c-2.3,0.5-4.5,1-6.8,1.4c-1.2,0.9-2.5,1.7-3.8,2.3c0.2,0.1,0.3,0.2,0.5,0.3c0,0,0.1,0,0.1,0.1
			c0.8-0.5,1.7-1,2.5-1.6c2.3-0.5,4.5-1,6.8-1.4c0.3-0.1,0.6-0.2,0.8-0.2c1.2,0,2.2,1.8,2.8,2.7c0.6,1.1,0.3,2.1,0.4,3.3
			c0.1,0.7,0.3,1.4,0.4,2.1c0.2,1,0.1,1.7-0.3,2.7c0,0,0,0.1,0,0.1c0.1,0,0.1-0.1,0.2-0.1c0.1,0,0.2-0.1,0.3-0.1
			c0.1-0.3,0.2-0.7,0.4-1C751,30.9,751.1,30.2,750.9,29.2z"/>
	</g>
	<path id="XMLID_62_" class="st1" d="M729.6,19.8c0-0.1,0-0.1,0-0.2c-0.1-0.1-0.2-0.1-0.3-0.2c-0.2,0-0.4-0.1-0.6-0.2
		c-0.1,0-0.1-0.1-0.2-0.2c-0.1-0.2,0.1-0.3,0.2-0.5c0.3-0.3,0.7-0.7,1.2-0.9c-0.1,0-0.2,0-0.3,0c-0.3,0.1-1.2,0.6-1.3,0.9
		c-0.1,0.8,0.6,0.5,0.9,0.9c0.1,0.1,0.1,0.4,0.1,0.5c0.2,0.7,0.6,1,1.1,1c-0.1-0.1-0.2-0.1-0.3-0.2
		C729.8,20.6,729.6,20.2,729.6,19.8z"/>
	<path id="XMLID_83_" class="st3" d="M732.5,18.7c-0.6-1-1.6-1.1-2.7-1c-0.4,0.2-0.9,0.6-1.2,0.9c-0.1,0.1-0.2,0.3-0.2,0.5
		c0,0.1,0.1,0.1,0.2,0.2c0.2,0.1,0.4,0.2,0.6,0.2c0.1,0,0.3,0,0.3,0.2c0,0.1,0,0.1,0,0.2c0,0.4,0.2,0.8,0.4,1.1
		c0.1,0.1,0.2,0.1,0.3,0.2c0.3,0,0.7,0,1.1,0C732.7,20.9,733.2,19.8,732.5,18.7z"/>
	<path id="XMLID_91_" class="st8" d="M733,18.9c-0.4-0.7-0.9-1.1-1.6-1.3c-0.6-0.2-1.2-0.1-1.9,0c0,0,0,0,0,0c0,0,0,0,0,0
		c-0.6,0.2-2.3,1.3-1.3,1.8c0.5,0.3,0.6,0.2,0.8,0.9c0.1,0.3,0.2,0.5,0.4,0.7c0.5,0.5,1.1,0.4,1.7,0.3c0.5-0.1,1,0,1.4-0.3
		c0.1,0,0.1-0.1,0.2-0.1C733.1,20.4,733.3,19.4,733,18.9z M731.4,21c-0.4,0-0.8,0.1-1.1,0c-0.5-0.1-1-0.3-1.1-1c0-0.1,0-0.4-0.1-0.5
		c-0.3-0.3-1,0-0.9-0.9c0-0.3,1-0.8,1.3-0.9c0.1,0,0.2,0,0.3,0c1.1-0.1,2.1,0,2.7,1C733.2,19.8,732.7,20.9,731.4,21z"/>
	<path id="XMLID_77_" class="st5" d="M732.5,18.7C732.5,18.7,732.5,18.7,732.5,18.7c0.5,1-0.1,1.9-1.2,2.1c-0.4,0-0.8,0.1-1.1,0
		c-0.1-0.1-0.2-0.1-0.3-0.2c-0.1-0.1-0.1-0.1-0.2-0.2c0.1,0.2,0.2,0.4,0.3,0.5c0.1,0.1,0.2,0.1,0.3,0.2c0.3,0,0.7,0,1.1,0
		C732.7,20.9,733.2,19.8,732.5,18.7z"/>
	<path id="XMLID_80_" class="st5" d="M729.1,19.2c-0.2,0-0.4-0.1-0.6-0.2c0,0,0,0,0,0c0,0,0,0.1,0,0.1c0,0.1,0.1,0.1,0.2,0.2
		c0.2,0.1,0.4,0.2,0.6,0.2c0.1,0,0.1,0,0.2,0.1c0-0.1,0-0.1,0-0.2C729.4,19.2,729.2,19.2,729.1,19.2z"/>
</g>
</svg>
